<svg width="20" height="22" viewBox="0 0 20 22" fill="none" xmlns="http://www.w3.org/2000/svg">
<g clip-path="url(#clip0_1_676)">
<path d="M19.8587 4.19344C19.3014 5.08809 18.6236 5.85851 17.8254 6.50465C17.8254 6.63719 17.8254 6.82772 17.8254 7.07623C17.8254 8.28567 17.6672 9.48684 17.3509 10.6797C17.0346 11.8726 16.5527 13.0241 15.9051 14.1341C15.2574 15.2441 14.4817 16.2133 13.578 17.0417C12.6743 17.8701 11.5899 18.5494 10.3247 19.0796C9.05954 19.6097 7.69649 19.8583 6.23549 19.8251C3.96119 19.8251 1.8827 19.1541 0 17.8121C0.28617 17.8453 0.609995 17.8618 0.971473 17.8618C2.86924 17.8618 4.55614 17.224 6.03216 15.9483C5.14354 15.9317 4.35281 15.6335 3.65997 15.0536C2.96713 14.4737 2.48516 13.7365 2.21405 12.8418C2.50022 12.8915 2.75627 12.9164 2.98219 12.9164C3.34368 12.9164 3.70516 12.8667 4.06662 12.7672C3.11776 12.5519 2.33455 12.0383 1.71702 11.2264C1.0995 10.4146 0.790732 9.46199 0.790732 8.36853V8.31882C1.36307 8.66675 1.9806 8.85725 2.64331 8.8904C2.08603 8.47621 1.64171 7.94604 1.31036 7.29989C0.979003 6.65375 0.813327 5.94133 0.813327 5.16265C0.813327 4.35084 1.00159 3.597 1.37814 2.90116C2.40232 4.27628 3.63738 5.37804 5.0833 6.20643C6.52919 7.03482 8.09559 7.49043 9.78251 7.57326C9.70719 7.22533 9.66954 6.8857 9.66954 6.55436C9.66954 5.31178 10.0687 4.25971 10.8669 3.39819C11.6652 2.53667 12.6216 2.09762 13.7362 2.08105C14.926 2.08105 15.9201 2.55324 16.7184 3.4976C17.6371 3.29878 18.5032 2.93429 19.3165 2.40413C19.0002 3.46446 18.3977 4.29285 17.5091 4.88929C18.2923 4.78988 19.0755 4.55793 19.8587 4.19344Z" fill="black"/>
</g>
<defs>
<clipPath id="clip0_1_676">
<rect width="20" height="22" fill="white"/>
</clipPath>
</defs>
</svg>
